<?xml version="1.0" standalone="no"?>
<!DOCTYPE svg PUBLIC "-//W3C//DTD SVG 20010904//EN"
 "http://www.w3.org/TR/2001/REC-SVG-20010904/DTD/svg10.dtd">
<svg version="1.0" xmlns="http://www.w3.org/2000/svg"
 width="500.000000pt" height="175.000000pt" viewBox="0 0 500.000000 175.000000"
 preserveAspectRatio="xMidYMid meet">
<metadata>
Created by potrace 1.16, written by Peter Selinger 2001-2019
</metadata>
<g transform="translate(0.000000,175.000000) scale(0.100000,-0.100000)"
fill="#000000" stroke="none">
<path d="M4330 1731 c0 -6 4 -12 9 -15 13 -9 -38 -156 -55 -156 -35 0 -8 -20
60 -44 41 -14 76 -26 79 -26 8 0 28 63 22 68 -3 3 -14 -3 -24 -12 -11 -10 -30
-16 -43 -14 -19 2 -23 8 -21 32 3 39 15 49 46 37 17 -7 28 -7 32 0 4 5 -7 14
-24 20 -34 12 -35 16 -22 53 8 18 15 23 31 19 22 -6 44 -38 36 -51 -3 -4 -1
-14 3 -21 6 -9 12 -2 21 24 7 20 8 40 4 45 -9 8 -132 50 -146 50 -4 0 -8 -4
-8 -9z"/>
<path d="M3735 1684 c-65 -32 -103 -64 -58 -50 15 5 22 -2 33 -31 8 -21 13
-41 12 -45 -1 -5 2 -8 7 -8 18 0 33 -61 18 -71 -5 -4 -5 -9 0 -12 13 -8 153
59 153 72 0 20 -23 60 -31 55 -5 -3 -9 -18 -9 -33 0 -19 -7 -31 -24 -39 -21
-9 -25 -7 -40 25 l-16 35 30 11 c16 6 30 15 30 19 0 11 -28 10 -50 -2 -16 -9
-22 -5 -35 20 -15 29 -15 31 9 41 20 10 30 9 51 -5 15 -10 29 -15 32 -13 6 7
-25 67 -35 66 -4 0 -38 -16 -77 -35z"/>
<path d="M4875 1334 c-9 -29 -143 -93 -155 -74 -16 26 -28 0 -14 -30 19 -37
34 -47 34 -22 0 13 13 24 40 35 l41 16 -41 -51 c-22 -28 -38 -53 -36 -55 2 -3
40 -5 83 -5 l78 0 -54 -24 c-43 -19 -56 -22 -63 -12 -6 10 -10 10 -17 -2 -7
-9 -6 -17 0 -21 6 -3 12 -12 13 -20 5 -26 18 -49 27 -49 5 0 9 8 9 18 1 25
137 87 156 71 11 -9 14 -8 14 5 0 10 -5 26 -10 37 -9 16 -22 19 -86 19 l-76 0
19 24 c10 13 31 40 47 60 28 36 29 38 13 69 -15 30 -16 31 -22 11z"/>
<path d="M3312 1250 c-12 -5 -27 -22 -33 -37 -6 -16 -17 -41 -25 -57 -8 -16
-14 -35 -14 -43 0 -16 17 -17 24 0 3 9 8 8 18 -4 7 -9 31 -19 52 -22 22 -3 42
-10 45 -15 3 -5 14 -11 24 -15 9 -4 16 -12 15 -18 -2 -6 4 -14 12 -17 8 -2 12
-1 8 3 -3 4 2 27 13 52 21 48 19 64 -5 44 -10 -8 -21 -9 -41 -1 -32 12 -26 23
13 25 46 1 70 14 76 42 8 30 2 40 -16 26 -7 -6 -30 -13 -50 -16 -33 -5 -38 -3
-38 13 0 10 -10 26 -22 34 -25 18 -25 18 -56 6z"/>
<path d="M10 1200 c0 -17 7 -20 45 -20 l45 0 0 -300 0 -300 -45 0 c-38 0 -45
-3 -45 -20 0 -19 7 -20 160 -20 153 0 160 1 160 20 0 17 -7 20 -45 20 l-45 0
0 135 0 135 33 0 c29 0 35 -6 57 -47 14 -27 35 -64 47 -84 12 -20 19 -40 16
-43 -4 -3 -2 -6 4 -6 11 0 40 -59 35 -73 -1 -4 3 -7 8 -7 6 0 16 -11 22 -25
11 -24 14 -25 115 -25 107 0 131 11 73 33 -24 9 -48 40 -110 143 -44 72 -80
134 -80 138 0 6 50 29 58 27 5 -2 59 64 71 86 16 31 14 119 -4 153 -18 35 -67
73 -114 89 -21 7 -114 11 -247 11 -207 0 -214 -1 -214 -20z m364 -35 c8 -8 19
-15 25 -15 19 0 44 -64 44 -115 1 -97 -47 -145 -148 -145 l-55 0 0 145 0 145
59 0 c40 0 65 -5 75 -15z"/>
<path d="M697 1196 c4 -21 9 -23 49 -18 l44 5 0 -302 0 -301 -45 0 c-38 0 -45
-3 -45 -20 0 -20 7 -20 280 -20 l280 0 0 110 c0 102 -1 110 -19 110 -13 0 -21
-9 -26 -30 -4 -16 -11 -30 -16 -30 -6 0 -7 -5 -4 -10 8 -13 -30 -75 -58 -95
-15 -11 -47 -15 -109 -15 l-88 0 0 145 0 145 110 0 c103 0 110 1 110 20 0 19
-7 20 -110 20 l-110 0 0 135 0 135 83 0 c53 0 88 -5 96 -12 6 -7 17 -13 24
-13 7 -1 11 -6 9 -13 -1 -7 4 -12 12 -12 15 0 50 -76 41 -91 -4 -5 -1 -9 4 -9
6 0 10 -6 9 -12 -2 -7 7 -14 20 -16 22 -3 22 -2 22 107 l0 111 -284 0 -283 0
4 -24z"/>
<path d="M1327 1200 c4 -16 14 -20 49 -20 l44 0 0 -300 0 -300 -44 0 c-30 0
-46 -5 -50 -15 -3 -9 0 -18 7 -21 7 -2 136 -3 287 -2 l275 3 3 108 c2 100 1
107 -16 107 -13 0 -24 -11 -32 -32 -52 -141 -61 -148 -186 -148 l-94 0 0 145
0 145 115 0 c108 0 115 1 115 20 0 19 -7 20 -115 20 l-115 0 0 135 0 136 88
-2 c62 -1 92 -6 105 -17 9 -8 17 -11 17 -7 0 4 11 -5 25 -21 20 -23 32 -51 40
-94 4 -23 28 -48 40 -44 12 5 15 26 15 99 0 51 -3 100 -6 109 -5 14 -40 16
-289 16 -278 0 -283 0 -278 -20z"/>
<path d="M1960 1200 c0 -17 7 -20 45 -20 l45 0 0 -300 0 -300 -45 0 c-40 0
-45 -3 -45 -22 0 -22 3 -23 82 -20 167 5 164 5 144 24 -10 10 -31 18 -47 18
l-29 0 1 203 0 202 64 -126 c35 -69 65 -134 67 -145 1 -10 6 -21 10 -24 4 -3
25 -39 47 -80 24 -47 47 -77 62 -82 13 -5 20 -6 17 -3 -3 4 11 46 32 93 21 48
40 94 42 102 2 8 5 17 8 20 3 3 11 18 18 33 11 25 10 28 -5 25 -23 -4 -28 25
-8 45 8 9 15 23 15 31 0 12 6 15 24 10 19 -5 25 -1 31 23 5 15 8 31 7 36 -1 4
2 7 7 7 8 0 21 34 20 54 -1 5 3 12 8 15 5 3 14 17 20 31 9 20 12 -27 12 -222
l1 -248 -44 0 c-41 0 -65 -17 -49 -34 9 -9 323 -7 323 2 0 18 -26 32 -57 32
l-33 0 0 300 0 300 45 0 c38 0 45 3 45 20 0 19 -7 20 -115 20 l-115 0 -13 -27
c-6 -16 -14 -30 -17 -33 -3 -3 -6 -12 -6 -20 0 -8 -8 -31 -19 -50 -10 -19 -20
-41 -21 -49 -2 -8 -6 -17 -11 -20 -4 -3 -10 -15 -11 -26 -2 -10 -10 -28 -18
-39 -8 -11 -14 -28 -14 -38 0 -10 -5 -18 -12 -18 -6 0 -9 -3 -5 -6 3 -3 -3
-26 -13 -50 -11 -24 -16 -44 -12 -44 4 0 1 -4 -7 -9 -13 -9 -20 -26 -23 -58
-2 -21 -14 -5 -32 42 -10 25 -21 45 -25 45 -4 0 -8 6 -8 13 0 6 -41 96 -91
200 l-91 187 -100 0 c-94 0 -101 -1 -101 -20z"/>
<path d="M4298 1201 c-72 -24 -128 -100 -128 -176 0 -21 10 -58 21 -82 20 -42
20 -45 4 -63 -25 -28 -12 -40 31 -28 25 7 50 6 79 -1 76 -19 146 5 192 66 25
32 28 45 28 108 0 63 -3 76 -28 108 -15 20 -41 44 -57 52 -37 19 -107 27 -142
16z m106 -45 c39 -16 81 -69 89 -110 16 -89 -77 -179 -168 -162 -132 25 -156
208 -35 268 42 22 70 22 114 4z"/>
<path d="M3775 1077 l-27 -22 2 -183 c1 -179 0 -183 -24 -215 -30 -39 -36 -76
-16 -99 13 -17 43 -18 365 -18 301 0 354 2 373 16 29 20 28 59 -3 96 -22 26
-25 39 -25 105 0 64 -2 74 -16 69 -9 -3 -24 -6 -35 -6 -17 0 -19 -8 -19 -65
l0 -65 -265 0 -265 0 0 165 0 165 165 0 165 0 0 24 c0 13 3 31 6 40 5 14 -14
16 -174 16 -174 0 -182 -1 -207 -23z"/>
<path d="M3294 919 c-36 -18 -53 -59 -40 -96 32 -94 156 -72 156 27 0 62 -58
97 -116 69z"/>
<path d="M4864 920 c-25 -10 -32 -20 -44 -60 -7 -25 -4 -35 17 -60 50 -59 143
-27 143 50 0 55 -63 93 -116 70z"/>
<path d="M4738 656 c-15 -41 -15 -44 1 -49 9 -2 32 -23 50 -46 l33 -41 -75 0
c-70 0 -74 -1 -86 -26 -12 -27 -5 -56 9 -33 6 9 26 4 84 -22 41 -18 70 -36 64
-40 -7 -4 -6 -9 2 -14 16 -10 40 20 40 48 0 16 -3 17 -14 8 -11 -10 -23 -8
-53 8 l-38 20 68 1 c37 0 67 4 67 8 0 4 -23 34 -51 65 l-51 58 38 -18 c22 -10
41 -21 42 -26 2 -4 8 -5 13 -1 5 3 9 -4 9 -15 0 -33 15 -25 30 17 8 20 17 41
19 46 2 5 -3 6 -12 3 -26 -10 -157 52 -157 74 0 33 -15 21 -32 -25z"/>
<path d="M3470 675 c0 -16 -17 -26 -77 -49 -51 -19 -78 -25 -81 -17 -2 6 -8
11 -14 11 -5 0 -6 -10 -2 -22 4 -13 7 -29 7 -35 0 -7 4 -13 9 -13 5 0 7 -4 4
-9 -3 -5 1 -14 9 -21 13 -10 15 -9 15 9 0 14 9 25 26 32 15 5 28 8 30 6 2 -2
-9 -21 -24 -43 -32 -44 -36 -97 -9 -102 11 -2 17 3 17 13 0 9 9 29 20 45 18
25 24 27 64 23 41 -5 46 -3 57 21 10 21 9 36 -7 82 -10 32 -24 64 -31 73 -11
14 -12 14 -13 -4z"/>
<path d="M3775 261 c3 -11 1 -28 -4 -38 -6 -10 -19 -39 -30 -65 -12 -28 -26
-48 -35 -48 -34 0 -13 -18 57 -48 39 -18 75 -32 79 -32 8 0 30 62 23 68 -3 3
-13 -2 -23 -11 -20 -18 -57 -23 -66 -8 -6 9 12 71 20 71 3 0 18 -7 34 -15 27
-14 30 -14 30 0 0 8 -4 15 -8 15 -5 0 -16 6 -26 13 -15 11 -16 17 -5 40 14 32
17 32 47 11 16 -11 21 -22 17 -35 -10 -31 6 -45 21 -18 24 44 17 56 -52 88
-77 36 -87 38 -79 12z"/>
<path d="M4330 229 c-90 -31 -88 -30 -65 -39 28 -10 74 -148 54 -161 -7 -4
-10 -11 -7 -14 7 -7 137 32 152 45 12 11 -4 72 -17 67 -7 -2 -11 -13 -9 -25 3
-18 -29 -52 -49 -52 -6 0 -29 54 -29 67 0 2 14 9 31 15 18 6 27 14 21 20 -5 5
-19 5 -35 -1 -23 -9 -26 -7 -36 21 -9 24 -8 34 1 40 23 14 46 9 62 -14 20 -28
33 -16 20 20 -12 34 -26 36 -94 11z"/>
</g>
</svg>
